<?xml version="1.0" standalone="no"?>
<!DOCTYPE svg PUBLIC "-//W3C//DTD SVG 20010904//EN"
 "http://www.w3.org/TR/2001/REC-SVG-20010904/DTD/svg10.dtd">
<svg version="1.0" xmlns="http://www.w3.org/2000/svg"
 width="700.000000pt" height="700.000000pt" viewBox="0 0 700.000000 700.000000"
 preserveAspectRatio="xMidYMid meet">
<metadata>
Created by potrace 1.14, written by Peter Selinger 2001-2017
</metadata>
<g transform="translate(0.000000,700.000000) scale(0.100000,-0.100000)"
fill="#000000" stroke="none">
<path d="M3289 6386 c-2 -2 -49 -7 -104 -10 -55 -3 -111 -8 -125 -10 -14 -3
-50 -7 -80 -11 -30 -3 -93 -12 -140 -21 -47 -8 -101 -17 -120 -20 -98 -15
-459 -112 -535 -143 -11 -5 -80 -32 -154 -61 -158 -61 -225 -92 -386 -178
-104 -56 -340 -201 -377 -232 -7 -5 -56 -42 -108 -82 -157 -120 -251 -206
-460 -427 -44 -47 -161 -200 -229 -301 -259 -382 -405 -778 -458 -1235 -10
-86 -9 -458 1 -540 29 -240 51 -325 108 -411 97 -146 194 -213 314 -219 131
-6 251 43 661 273 615 345 818 444 968 475 79 16 120 9 147 -24 62 -75 -47
-331 -341 -799 -39 -61 -71 -116 -71 -120 0 -5 -4 -10 -8 -12 -4 -1 -21 -25
-37 -52 -17 -28 -39 -64 -50 -82 -11 -18 -48 -76 -81 -131 -245 -394 -323
-563 -324 -698 0 -107 58 -246 140 -334 61 -64 371 -226 620 -324 184 -71 486
-162 610 -182 19 -3 55 -10 80 -15 64 -14 157 -29 215 -35 28 -4 61 -8 75 -10
159 -26 826 -26 930 0 8 2 39 7 69 10 30 4 63 9 75 11 11 2 38 6 61 10 22 3
74 12 115 20 41 8 86 17 100 20 14 3 43 10 65 16 22 6 49 13 60 15 50 9 367
111 440 142 11 5 65 28 120 51 536 226 1035 612 1371 1060 46 61 100 139 120
173 21 34 43 69 50 77 35 42 230 456 239 510 1 3 13 43 27 90 36 114 64 229
78 320 7 41 14 83 16 94 19 104 26 472 11 611 -73 689 -395 1303 -950 1809
-426 388 -1030 699 -1617 831 -85 19 -276 55 -320 60 -30 3 -62 8 -70 10 -8 2
-46 7 -85 10 -38 4 -86 9 -105 11 -45 5 -547 14 -551 10z m29 -4028 c374 -76
687 -309 739 -552 50 -232 -121 -415 -432 -461 -170 -25 -410 6 -570 74 -296
126 -487 311 -523 508 -21 117 8 205 97 294 74 73 159 115 286 142 101 22 286
19 403 -5z"/>
</g>
</svg>
